<svg width="701" height="683" viewBox="0 0 701 683" fill="none" xmlns="http://www.w3.org/2000/svg">
<path d="M434.871 220.48L366.889 259.732L434.871 298.983L502.854 259.732L434.871 220.48Z" fill="#EFF3F6"/>
<path d="M434.871 298.984V377.487L366.889 338.235V259.732L434.871 298.984Z" fill="#DAE2E8"/>
<path d="M502.854 259.732L434.871 298.984V377.487L502.854 338.235V259.732Z" fill="#B5C4D1"/>
<path d="M265.466 316.792L197.484 356.043L265.466 395.295L333.449 356.043L265.466 316.792Z" fill="#EFF3F6"/>
<path d="M265.466 395.295V473.798L197.484 434.546V356.043L265.466 395.295Z" fill="#DAE2E8"/>
<path d="M333.449 356.043L265.466 395.295V473.798L333.449 434.546V356.043Z" fill="#B5C4D1"/>
<path d="M520.864 267.87L452.881 307.122L520.864 346.373L588.846 307.122L520.864 267.87Z" fill="#EFF3F6"/>
<path d="M520.864 346.372V522.99L452.881 483.739V307.121L520.864 346.372Z" fill="#DAE2E8"/>
<path d="M588.846 307.121L520.864 346.372V522.99L588.846 483.739V307.121Z" fill="#B5C4D1"/>
<path d="M435.826 415.103L367.843 454.354L435.826 493.606L503.808 454.354L435.826 415.103Z" fill="#EFF3F6"/>
<path d="M435.826 493.606V572.1L367.843 532.849V454.354L435.826 493.606Z" fill="#DAE2E8"/>
<path d="M503.809 454.354L435.826 493.606V572.1L503.809 532.849V454.354Z" fill="#B5C4D1"/>
<path d="M435.826 316.979L367.843 356.23L435.826 395.482L503.808 356.23L435.826 316.979Z" fill="#0082FF"/>
<path d="M435.826 395.481V473.975L367.843 434.732V356.229L435.826 395.481Z" fill="#0075D6"/>
<path d="M503.809 356.229L435.826 395.481V473.975L503.809 434.732V356.229Z" fill="#0462AF"/>
<path d="M180.934 365.994L112.951 405.246L180.934 444.497L248.916 405.246L180.934 365.994Z" fill="#08F7BC"/>
<path d="M180.934 444.497V522.992L112.951 483.74V405.246L180.934 444.497Z" fill="#17E5AF"/>
<path d="M248.917 405.246L180.934 444.497V522.991L248.917 483.74V405.246Z" fill="#05D19C"/>
<path d="M180.934 267.87L112.951 307.122L180.934 346.373L248.916 307.122L180.934 267.87Z" fill="#EFF3F6"/>
<path d="M180.934 346.372V424.867L112.951 385.624V307.121L180.934 346.372Z" fill="#DAE2E8"/>
<path d="M248.917 307.121L180.934 346.372V424.866L248.917 385.623V307.121Z" fill="#B5C4D1"/>
<path d="M265.98 415.061L197.998 454.312L265.98 493.563L333.963 454.312L265.98 415.061Z" fill="#EFF3F6"/>
<path d="M265.98 493.563V572.057L197.998 532.806V454.312L265.98 493.563Z" fill="#DAE2E8"/>
<path d="M333.963 454.312L265.98 493.563V572.057L333.963 532.806V454.312Z" fill="#B5C4D1"/>
<g opacity="0.5">
<path d="M265.98 316.936L197.998 356.187L265.98 395.438L333.963 356.187L265.98 316.936Z" fill="#24333F"/>
<path d="M265.98 395.438V473.932L197.998 434.689V356.187L265.98 395.438Z" fill="#1D2933"/>
<path d="M333.963 356.187L265.98 395.438V473.932L333.963 434.689V356.187Z" fill="#11171D"/>
</g>
<path d="M350.907 71.6211L197.947 159.939L265.929 199.19L418.89 110.872L350.907 71.6211Z" fill="#EFF3F6"/>
<path d="M265.929 199.19V277.685L197.947 238.433V159.939L265.929 199.19Z" fill="#DAE2E8"/>
<path d="M418.89 110.873L265.929 199.19V277.685L418.89 189.375V110.873Z" fill="#B5C4D1"/>
<path d="M180.951 169.745L112.969 208.997L180.951 248.248L248.934 208.997L180.951 169.745Z" fill="#06808B"/>
<path d="M180.951 248.248V326.751L112.969 287.5V208.997L180.951 248.248Z" fill="#0C686D"/>
<path d="M248.934 208.997L180.951 248.248V326.751L248.934 287.499V208.997Z" fill="#085860"/>
<path d="M112.969 208.997H248.934V52H112.969V208.997Z" fill="url(#paint0_linear_661_32828)"/>
<path d="M435.885 120.688L367.903 159.939L435.885 199.19L503.868 159.939L435.885 120.688Z" fill="#EFF3F6"/>
<path d="M435.885 199.19V277.685L367.903 238.433V159.939L435.885 199.19Z" fill="#DAE2E8"/>
<path d="M503.868 159.939L435.886 199.19V277.685L503.868 238.433V159.939Z" fill="#B5C4D1"/>
<path d="M350.908 169.745L282.925 208.997L350.908 248.248L418.89 208.997L350.908 169.745Z" fill="#EFF3F6"/>
<path d="M350.908 248.248V326.751L282.925 287.499V208.997L350.908 248.248Z" fill="#DAE2E8"/>
<path d="M418.89 208.997L350.908 248.248V326.751L418.89 287.499V208.997Z" fill="#B5C4D1"/>
<path d="M265.929 218.812L197.947 258.063L265.929 297.314L333.912 258.063L265.929 218.812Z" fill="#EFF3F6"/>
<path d="M265.929 297.315V375.809L197.947 336.558V258.063L265.929 297.315Z" fill="#DAE2E8"/>
<path d="M333.912 258.063L265.929 297.315V375.809L333.912 336.558V258.063Z" fill="#B5C4D1"/>
<path d="M520.864 169.745L452.881 208.997L520.864 248.248L588.846 208.997L520.864 169.745Z" fill="#EFF3F6"/>
<path d="M520.864 248.248V326.751L452.881 287.499V208.997L520.864 248.248Z" fill="#DAE2E8"/>
<path d="M588.846 208.997L520.864 248.248V326.751L588.846 287.499V208.997Z" fill="#B5C4D1"/>
<path d="M435.885 218.812L367.903 258.063L435.885 297.314L503.868 258.063L435.885 218.812Z" stroke="#2D3B48" stroke-width="1.97641" stroke-linecap="round" stroke-linejoin="round"/>
<path d="M435.885 297.315V375.809L367.903 336.558V258.063L435.885 297.315Z" stroke="#2D3B48" stroke-width="1.97641" stroke-linecap="round" stroke-linejoin="round"/>
<path d="M503.868 258.063L435.886 297.315V375.809L503.868 336.558V258.063Z" stroke="#2D3B48" stroke-width="1.97641" stroke-linecap="round" stroke-linejoin="round"/>
<path d="M350.908 464.118L282.925 503.37L350.908 542.621L418.89 503.37L350.908 464.118Z" fill="#EFF3F6"/>
<path d="M350.908 542.621V621.115L282.925 581.864V503.37L350.908 542.621Z" fill="#DAE2E8"/>
<path d="M418.89 503.37L350.908 542.621V621.115L418.89 581.864V503.37Z" fill="#B5C4D1"/>
<path d="M350.908 365.994L282.925 405.246L350.908 444.497L418.89 405.246L350.908 365.994Z" fill="#EFF3F6" stroke="white" stroke-width="1.97641" stroke-linecap="round" stroke-linejoin="round"/>
<path d="M350.908 444.497V523L282.925 483.748V405.246L350.908 444.497Z" fill="#DAE2E8" stroke="white" stroke-width="1.97641" stroke-linecap="round" stroke-linejoin="round"/>
<path d="M418.89 405.246L350.908 444.497V523L418.89 483.748V405.246Z" fill="#B5C4D1" stroke="white" stroke-width="1.97641" stroke-linecap="round" stroke-linejoin="round"/>
<path d="M350.908 267.87L282.925 307.122L350.908 346.373L418.89 307.122L350.908 267.87Z" fill="#EFF3F6"/>
<path d="M350.908 346.372V424.875L282.925 385.623V307.121L350.908 346.372Z" fill="#DAE2E8"/>
<path d="M418.89 307.121L350.908 346.372V424.875L418.89 385.623V307.121Z" fill="#B5C4D1"/>
<path d="M265.98 395.439L61.9813 277.685L61.9048 513.227L265.98 630.905V395.439Z" stroke="#2D3B48" stroke-width="1.97641" stroke-linecap="round" stroke-linejoin="round" stroke-dasharray="6.92 6.92"/>
<path d="M520.864 346.372L622.837 287.5L622.829 503.369L520.864 562.242V346.372Z" stroke="#2D3B48" stroke-width="1.97641" stroke-linecap="round" stroke-linejoin="round" stroke-dasharray="6.92 6.92"/>
<path d="M503.809 356.229L435.826 473.975L571.791 552.478L639.774 434.732L503.809 356.229Z" fill="url(#paint1_linear_661_32828)"/>
<defs>
<linearGradient id="paint0_linear_661_32828" x1="180.951" y1="208.045" x2="180.951" y2="58.7218" gradientUnits="userSpaceOnUse">
<stop stop-color="#06808B"/>
<stop offset="1" stop-color="#06808B" stop-opacity="0"/>
</linearGradient>
<linearGradient id="paint1_linear_661_32828" x1="470.646" y1="415.584" x2="599.964" y2="490.246" gradientUnits="userSpaceOnUse">
<stop stop-color="#0462AF"/>
<stop offset="1" stop-color="#0462AF" stop-opacity="0"/>
</linearGradient>
</defs>
</svg>
