<svg width="759" height="609" viewBox="0 0 759 609" fill="none" xmlns="http://www.w3.org/2000/svg">
<path d="M0.833984 352.078L379.839 570.92L758.853 352.078L380.078 133.136L0.833984 352.078Z" fill="#EFF3F6"/>
<path d="M380.037 95.2104L314.115 133.268L380.037 171.325L445.951 133.268L380.037 95.2104Z" fill="#EFF3F6"/>
<path d="M380.037 171.325V247.431L445.951 209.382V133.268L380.037 171.325Z" fill="#B5C4D1"/>
<path d="M380.037 171.325L314.115 133.268V209.382L380.037 247.431V171.325Z" fill="#DAE2E8"/>
<path d="M297.645 142.784L231.723 180.841L297.645 218.898L363.559 180.841L297.645 142.784Z" fill="#EFF3F6"/>
<path d="M297.645 218.899V295.005L363.559 256.956V180.842L297.645 218.899Z" fill="#B5C4D1"/>
<path d="M297.645 218.899L231.723 180.842V256.956L297.645 295.005V218.899Z" fill="#DAE2E8"/>
<path d="M215.582 190.35L149.66 228.407L215.582 266.464L281.504 228.407L215.582 190.35Z" stroke="#2D3B48" stroke-width="1.64785" stroke-linecap="round" stroke-linejoin="round"/>
<path d="M215.582 266.463V342.569L281.504 304.52V228.406L215.582 266.463Z" stroke="#2D3B48" stroke-width="1.64785" stroke-linecap="round" stroke-linejoin="round"/>
<path d="M215.582 266.463L149.66 228.406V304.52L215.582 342.569V266.463Z" stroke="#2D3B48" stroke-width="1.64785" stroke-linecap="round" stroke-linejoin="round"/>
<path d="M132.835 237.922L66.9131 275.979L132.827 314.037L198.749 275.979L132.835 237.922Z" fill="#EFF3F6"/>
<path d="M132.827 314.037L132.835 390.143L198.749 352.094V275.98L132.827 314.037Z" fill="#B5C4D1"/>
<path d="M132.827 314.037L66.9131 275.98V352.094L132.835 390.143L132.827 314.037Z" fill="#DAE2E8"/>
<path d="M462.182 142.784L396.26 180.841L462.182 218.898L528.096 180.841L462.182 142.784Z" fill="#EFF3F6"/>
<path d="M462.182 218.899V295.005L528.096 256.956V180.842L462.182 218.899Z" fill="#B5C4D1"/>
<path d="M462.182 218.899L396.26 180.842V256.956L462.182 295.005V218.899Z" fill="#DAE2E8"/>
<path d="M379.79 190.35L313.868 228.407L379.79 266.464L445.704 228.407L379.79 190.35Z" fill="#EFF3F6"/>
<path d="M379.79 266.463V342.569L445.704 304.52V228.406L379.79 266.463Z" fill="#B5C4D1"/>
<path d="M379.79 266.463L313.868 228.406V304.52L379.79 342.569V266.463Z" fill="#DAE2E8"/>
<path d="M297.727 237.922L231.813 275.979L297.727 314.037L363.65 275.979L297.727 237.922Z" fill="#EFF3F6"/>
<path d="M297.728 314.037V390.143L363.65 352.094V275.98L297.728 314.037Z" fill="#B5C4D1"/>
<path d="M297.727 314.037L231.813 275.98V352.094L297.727 390.143V314.037Z" fill="#DAE2E8"/>
<path d="M214.981 285.488L149.059 323.545L214.981 361.602L280.895 323.545L214.981 285.488Z" fill="#EFF3F6"/>
<path d="M214.98 361.602V437.708L280.894 399.659V323.545L214.98 361.602Z" fill="#B5C4D1"/>
<path d="M214.981 361.602L149.059 323.545V399.659L214.981 437.708V361.602Z" fill="#DAE2E8"/>
<path d="M544.707 114.235L478.793 152.292L544.707 190.349L610.621 152.292L544.707 114.235Z" fill="#08F7BC"/>
<path d="M544.707 190.35V266.464L610.62 228.407V152.292L544.707 190.35Z" fill="#05D19C"/>
<path d="M544.707 190.35L478.793 152.292V228.407L544.707 266.464V190.35Z" fill="#17E5AF"/>
<path d="M462.314 237.922L396.4 275.979L462.314 314.037L528.237 275.979L462.314 237.922Z" fill="#EFF3F6"/>
<path d="M462.314 314.037V390.143L528.237 352.094V275.98L462.314 314.037Z" fill="#B5C4D1"/>
<path d="M462.314 314.037L396.4 275.98V352.094L462.314 390.143V314.037Z" fill="#DAE2E8"/>
<path d="M380.26 285.488L314.337 323.545L380.26 361.602L446.174 323.545L380.26 285.488Z" fill="#EFF3F6"/>
<path d="M380.26 361.602V437.708L446.174 399.659V323.545L380.26 361.602Z" fill="#B5C4D1"/>
<path d="M380.26 361.602L314.337 323.545V399.659L380.26 437.708V361.602Z" fill="#DAE2E8"/>
<g opacity="0.1">
<path d="M297.505 409.176L231.591 447.233L297.505 485.29L363.427 447.233L297.505 409.176Z" fill="black"/>
</g>
<g opacity="0.1">
<path d="M462.314 409.176L396.4 447.233L462.314 485.29L528.237 447.233L462.314 409.176Z" fill="black"/>
</g>
<path d="M297.505 295.004L231.945 332.855L297.505 370.707L363.064 332.855L297.505 295.004Z" fill="#0082FF"/>
<path d="M297.505 370.707V446.409L363.065 408.558V332.855L297.505 370.707Z" fill="#0462AF"/>
<path d="M297.505 370.707L231.945 332.855V408.558L297.505 446.409V370.707Z" fill="#0075D6"/>
<path d="M626.852 237.922L560.938 275.979L626.852 314.037L692.775 275.979L626.852 237.922Z" fill="#EFF3F6"/>
<path d="M626.852 314.037V390.143L692.774 352.094V275.98L626.852 314.037Z" fill="#B5C4D1"/>
<path d="M626.852 314.037L560.938 275.98V352.094L626.852 390.143V314.037Z" fill="#DAE2E8"/>
<path d="M544.46 285.488L478.546 323.545L544.46 361.602L610.382 323.545L544.46 285.488Z" fill="#EFF3F6"/>
<path d="M544.46 361.602V437.708L610.382 399.659V323.545L544.46 361.602Z" fill="#B5C4D1"/>
<path d="M544.46 361.602L478.546 323.545V399.659L544.46 437.708V361.602Z" fill="#DAE2E8"/>
<path d="M462.405 314.383L396.639 352.35L462.405 390.316L528.162 352.35L462.405 314.383Z" fill="#24333F"/>
<path d="M462.405 390.316V466.248L528.163 428.282V352.349L462.405 390.316Z" fill="#11171D"/>
<path d="M462.405 390.316L396.639 352.349V428.282L462.405 466.248V390.316Z" fill="#1D2933"/>
<path d="M379.65 380.626L313.736 418.684L379.65 456.741L445.572 418.684L379.65 380.626Z" fill="#EFF3F6"/>
<path d="M379.65 456.741V532.847L445.572 494.798V418.684L379.65 456.741Z" fill="#B5C4D1"/>
<path d="M379.65 456.741L313.736 418.684V494.798L379.65 532.847V456.741Z" fill="#DAE2E8"/>
<path d="M379.839 570.921V608.986L758.869 390.16L758.853 352.078L379.839 570.921Z" fill="#B5C4D1"/>
<path d="M379.84 608.986L0.80957 390.16L0.834288 352.078L379.84 570.921V608.986Z" fill="#DAE2E8"/>
<path d="M363.064 332.856H231.236V180.636H363.064V332.856Z" fill="url(#paint0_linear_647_10935)"/>
<path d="M379.872 18.9814L247.929 95.1533L379.872 171.325L511.808 95.1533L379.872 18.9814Z" stroke="#2D3B48" stroke-width="1.64785" stroke-linecap="round" stroke-linejoin="round" stroke-dasharray="7 7"/>
<path d="M610.621 152.292H478.793V0.0722656H610.621V152.292Z" fill="url(#paint1_linear_647_10935)"/>
<defs>
<linearGradient id="paint0_linear_647_10935" x1="297.15" y1="331.925" x2="297.15" y2="187.145" gradientUnits="userSpaceOnUse">
<stop stop-color="#0082FF"/>
<stop offset="1" stop-color="#0082FF" stop-opacity="0"/>
</linearGradient>
<linearGradient id="paint1_linear_647_10935" x1="544.707" y1="151.37" x2="544.707" y2="6.5895" gradientUnits="userSpaceOnUse">
<stop stop-color="#08F7BC"/>
<stop offset="1" stop-color="#08F7BC" stop-opacity="0"/>
</linearGradient>
</defs>
</svg>
