<svg width="2784" height="1138" viewBox="0 0 2784 1138" fill="none" xmlns="http://www.w3.org/2000/svg">
<g id="bottom purple shape">
<g id="Mask">
<mask id="mask0_205_6018" style="mask-type:luminance" maskUnits="userSpaceOnUse" x="0" y="0" width="2783" height="1138">
<path id="Clip 2" fill-rule="evenodd" clip-rule="evenodd" d="M2128.79 0C2071.87 0.154 2015.05 20.866 1965.78 51.86V51.86C1846.3 127.024 1755.81 250.264 1722.27 387.678V387.678C1698.9 483.42 1704.48 582.824 1736.57 674.07V674.07C1729.21 678.086 1721.82 682.058 1714.41 685.984V685.984C1677.79 705.394 1640.53 723.612 1602.66 740.468V740.468C1594.74 743.992 1586.76 747.362 1578.81 750.818V750.818C1576.93 751.6 1575.05 752.388 1573.16 753.16V753.16C1568.1 755.228 1563.03 757.274 1557.95 759.292V759.292C1538.37 767.074 1518.64 774.474 1498.76 781.47V781.47C1412.52 811.834 1323.6 834.368 1233.09 847.446V847.446C1137.28 859.376 1040.38 860.022 944.532 848.2V848.2C889.66 840.206 835.416 828.21 782.49 811.606V811.606C768.228 807.132 754.066 802.33 740.026 797.202V797.202C733.71 794.894 727.42 792.518 721.156 790.078V790.078C716.234 788.162 690.668 777.082 711.046 786.182V786.182C684.736 774.434 658.716 762.39 633.394 748.586V748.586C577.492 718.106 526.432 677.754 464.454 659.648V659.648C393.782 639.004 316.752 654.082 246.956 671.324V671.324C174.186 689.304 103.518 717.092 37.106 751.746V751.746C13.772 763.924 0.104 791.058 0 817.54V817.54V818.132C0.048 830.984 3.3 843.656 10.2 854.362V854.362C33.076 889.844 75.552 900.714 112.816 881.268V881.268C124.132 875.364 135.542 869.65 147.1 864.232V864.232C151.434 862.2 155.784 860.206 160.15 858.246V858.246C161.584 857.602 163.02 856.962 164.456 856.328V856.328C169.068 856.37 177.696 850.838 181.964 849.178V849.178C186.424 847.442 190.9 845.742 195.386 844.084V844.084C206.61 839.93 217.918 836.02 229.306 832.342V832.342C271.014 818.876 313.818 808.474 357.146 801.746V801.746C374.318 799.888 391.448 799.154 408.658 800.452V800.452C414.748 801.646 420.772 803.104 426.736 804.92V804.92C430.844 806.172 434.834 807.702 438.892 809.082V809.082C456.316 817.824 473.162 827.212 489.746 837.488V837.488C520.498 856.544 551.174 875.364 583.522 891.648V891.648C651.964 926.108 724.452 953.418 798.776 972.074V972.074C951.38 1010.38 1109.11 1014.74 1264.47 993.286V993.286C1419.69 971.85 1568.83 921.8 1710.36 855.36V855.36C1742.84 840.114 1775.03 823.968 1806.78 806.906V806.906C1886.05 916.34 1997.29 996.414 2121.7 1048.09V1048.09C2269.8 1109.6 2432.61 1127.02 2591.53 1133.89V1133.89C2630.15 1135.56 2668.79 1136.55 2707.43 1137.39V1137.39C2707.81 1137.4 2708.2 1137.4 2708.58 1137.4V1137.4H2709.02C2746.76 1137.27 2782.43 1103.44 2782.49 1065.23V1065.23V1065.05C2782.49 1064.16 2782.47 1063.28 2782.43 1062.39V1062.39C2780.58 1021.03 2749.48 988.302 2707.43 987.388V987.388C2609.63 985.266 2511.72 981.99 2414.6 969.724V969.724C2355.93 961.348 2297.74 949.504 2241.05 932.086V932.086C2225.78 927.39 2210.63 922.306 2195.63 916.8V916.8C2188.86 914.316 2182.13 911.744 2175.43 909.086V909.086C2174.06 908.544 2172.67 908.026 2171.28 907.498V907.498C2170.45 907.14 2169.63 906.78 2168.81 906.418V906.418C2145.62 896.222 2122.98 884.774 2101.02 872.128V872.128C2078.98 859.428 2057.64 845.526 2037.15 830.452V830.452C2035.59 829.306 2034.05 828.144 2032.5 826.98V826.98C2028.35 823.62 2024.18 820.286 2020.09 816.856V816.856C2010.14 808.524 2000.46 799.894 1991.05 790.958V790.958C1972.84 773.664 1955.71 755.24 1939.89 735.728V735.728C1939.49 735.226 1938.62 734.124 1937.71 732.98V732.98C1937.64 732.88 1937.57 732.792 1937.52 732.716V732.716C1937.01 732.022 1936.49 731.33 1935.98 730.634V730.634C1991.99 694.348 2045.86 654.868 2096.7 612.118V612.118C2156.07 562.188 2208.59 506.008 2254.67 443.604V443.604C2301.82 379.748 2340.51 302.466 2339.01 221.206V221.206C2337.52 140.856 2296.59 54.894 2220.92 19.83V19.83C2191.41 6.158 2160.73 0.084 2130.06 0V0H2128.79ZM2139.65 149.405C2144.13 150.369 2148.55 151.537 2152.92 152.997V152.997C2155.54 154.459 2158.6 156.271 2158.86 156.427V156.427C2159.66 156.911 2161.66 158.515 2163.62 159.961V159.961C2166.74 163.329 2170.86 169.641 2174.47 172.485V172.485C2175.33 173.869 2176.17 175.267 2176.98 176.679V176.679C2178.53 179.379 2179.93 182.129 2181.35 184.893V184.893C2184.2 193.661 2186.65 202.361 2188.46 211.307V211.307C2189.09 220.745 2189.01 230.121 2188.29 239.547V239.547C2185.19 255.465 2180.38 270.581 2175.07 286.063V286.063C2172.93 290.687 2170.7 295.263 2168.36 299.787V299.787C2163.55 309.109 2158.35 318.233 2152.86 327.165V327.165C2143.21 342.833 2132.6 357.825 2121.64 372.587V372.587C2120.87 373.571 2120.12 374.569 2119.35 375.537V375.537C2116.59 378.995 2113.8 382.427 2110.99 385.839V385.839C2104.42 393.791 2097.71 401.617 2090.85 409.317V409.317C2064.36 439.053 2035.79 466.897 2005.79 493.067V493.067C1990.74 506.195 1975.26 518.769 1959.65 531.211V531.211C1955.87 534.071 1952.09 536.933 1948.29 539.763V539.763C1940.55 545.519 1932.76 551.195 1924.91 556.791V556.791C1906.4 569.993 1887.6 582.817 1868.55 595.281V595.281C1864.81 581.347 1861.79 567.227 1859.48 552.973V552.973C1856.36 523.129 1856.53 493.185 1859.74 463.361V463.361C1862.49 446.227 1866.15 429.267 1870.85 412.545V412.545C1873.65 402.567 1876.78 392.687 1880.24 382.921V382.921C1881.98 378.029 1883.79 373.169 1885.68 368.337V368.337C1885.93 367.703 1886.16 367.127 1886.36 366.603V366.603C1894.8 348.197 1903.89 330.211 1914.35 312.853V312.853C1919.74 303.921 1925.41 295.157 1931.35 286.585V286.585C1934.32 282.297 1937.36 278.055 1940.47 273.861V273.861C1940.53 273.781 1940.59 273.701 1940.65 273.623V273.623C1940.67 273.599 1940.69 273.575 1940.71 273.553V273.553C1954.09 257.475 1967.86 241.907 1982.97 227.413V227.413C1990.5 220.195 1998.26 213.221 2006.24 206.515V206.515C2010.22 203.169 2014.46 200.077 2018.38 196.661V196.661C2016.37 198.409 2014.75 199.815 2013.47 200.925V200.925C2015.37 199.337 2017.48 197.617 2018.82 196.657V196.657C2036.89 183.671 2055.88 171.875 2075.98 162.283V162.283C2077.03 161.781 2078.08 161.285 2079.14 160.795V160.795C2084.4 158.923 2089.61 156.947 2094.96 155.299V155.299C2102.54 152.965 2110.21 151.075 2117.98 149.585V149.585C2125.22 149.071 2132.42 148.991 2139.65 149.405V149.405ZM2149.9 151.403C2149.42 151.233 2149.12 151.133 2149.11 151.143V151.143C2149.16 151.087 2149.45 151.191 2149.9 151.403V151.403ZM2162.62 158.967C2162.84 159.169 2163.07 159.395 2163.31 159.637V159.637C2159.53 156.583 2156.12 152.999 2162.62 158.967V158.967ZM2165.56 161.333C2166.59 162.017 2167.48 162.505 2167.98 162.553V162.553C2167.44 162.501 2166.56 162.019 2165.56 161.333V161.333ZM2172.13 168.835C2172.51 169.421 2172.9 170.007 2173.28 170.597V170.597C2170.09 166.545 2166.85 160.855 2172.13 168.835V168.835ZM2165.15 904.934C2166.93 905.688 2168.71 906.442 2170.49 907.196V907.196C2168.68 906.498 2166.88 905.772 2165.15 904.934V904.934ZM2013.47 200.926C2009.49 204.266 2006.44 207.022 2013.47 200.926V200.926Z" fill="white"/>
</mask>
<g mask="url(#mask0_205_6018)">
<path id="Fill 1" fill-rule="evenodd" clip-rule="evenodd" d="M2128.79 0C2071.87 0.154 2015.05 20.866 1965.78 51.86V51.86C1846.3 127.024 1755.81 250.264 1722.27 387.678V387.678C1698.9 483.42 1704.48 582.824 1736.57 674.07V674.07C1729.21 678.086 1721.82 682.058 1714.41 685.984V685.984C1677.79 705.394 1640.53 723.612 1602.66 740.468V740.468C1594.74 743.992 1586.76 747.362 1578.81 750.818V750.818C1576.93 751.6 1575.05 752.388 1573.16 753.16V753.16C1568.1 755.228 1563.03 757.274 1557.95 759.292V759.292C1538.37 767.074 1518.64 774.474 1498.76 781.47V781.47C1412.52 811.834 1323.6 834.368 1233.09 847.446V847.446C1137.28 859.376 1040.38 860.022 944.532 848.2V848.2C889.66 840.206 835.416 828.21 782.49 811.606V811.606C768.228 807.132 754.066 802.33 740.026 797.202V797.202C733.71 794.894 727.42 792.518 721.156 790.078V790.078C716.234 788.162 690.668 777.082 711.046 786.182V786.182C684.736 774.434 658.716 762.39 633.394 748.586V748.586C577.492 718.106 526.432 677.754 464.454 659.648V659.648C393.782 639.004 316.752 654.082 246.956 671.324V671.324C174.186 689.304 103.518 717.092 37.106 751.746V751.746C13.772 763.924 0.104 791.058 0 817.54V817.54V818.132C0.048 830.984 3.3 843.656 10.2 854.362V854.362C33.076 889.844 75.552 900.714 112.816 881.268V881.268C124.132 875.364 135.542 869.65 147.1 864.232V864.232C151.434 862.2 155.784 860.206 160.15 858.246V858.246C161.584 857.602 163.02 856.962 164.456 856.328V856.328C169.068 856.37 177.696 850.838 181.964 849.178V849.178C186.424 847.442 190.9 845.742 195.386 844.084V844.084C206.61 839.93 217.918 836.02 229.306 832.342V832.342C271.014 818.876 313.818 808.474 357.146 801.746V801.746C374.318 799.888 391.448 799.154 408.658 800.452V800.452C414.748 801.646 420.772 803.104 426.736 804.92V804.92C430.844 806.172 434.834 807.702 438.892 809.082V809.082C456.316 817.824 473.162 827.212 489.746 837.488V837.488C520.498 856.544 551.174 875.364 583.522 891.648V891.648C651.964 926.108 724.452 953.418 798.776 972.074V972.074C951.38 1010.38 1109.11 1014.74 1264.47 993.286V993.286C1419.69 971.85 1568.83 921.8 1710.36 855.36V855.36C1742.84 840.114 1775.03 823.968 1806.78 806.906V806.906C1886.05 916.34 1997.29 996.414 2121.7 1048.09V1048.09C2269.8 1109.6 2432.61 1127.02 2591.53 1133.89V1133.89C2630.15 1135.56 2668.79 1136.55 2707.43 1137.39V1137.39C2707.81 1137.4 2708.2 1137.4 2708.58 1137.4V1137.4H2709.02C2746.76 1137.27 2782.43 1103.44 2782.49 1065.23V1065.23V1065.05C2782.49 1064.16 2782.47 1063.28 2782.43 1062.39V1062.39C2780.58 1021.03 2749.48 988.302 2707.43 987.388V987.388C2609.63 985.266 2511.72 981.99 2414.6 969.724V969.724C2355.93 961.348 2297.74 949.504 2241.05 932.086V932.086C2225.78 927.39 2210.63 922.306 2195.63 916.8V916.8C2188.86 914.316 2182.13 911.744 2175.43 909.086V909.086C2174.06 908.544 2172.67 908.026 2171.28 907.498V907.498C2170.45 907.14 2169.63 906.78 2168.81 906.418V906.418C2145.62 896.222 2122.98 884.774 2101.02 872.128V872.128C2078.98 859.428 2057.64 845.526 2037.15 830.452V830.452C2035.59 829.306 2034.05 828.144 2032.5 826.98V826.98C2028.35 823.62 2024.18 820.286 2020.09 816.856V816.856C2010.14 808.524 2000.46 799.894 1991.05 790.958V790.958C1972.84 773.664 1955.71 755.24 1939.89 735.728V735.728C1939.49 735.226 1938.62 734.124 1937.71 732.98V732.98C1937.64 732.88 1937.57 732.792 1937.52 732.716V732.716C1937.01 732.022 1936.49 731.33 1935.98 730.634V730.634C1991.99 694.348 2045.86 654.868 2096.7 612.118V612.118C2156.07 562.188 2208.59 506.008 2254.67 443.604V443.604C2301.82 379.748 2340.51 302.466 2339.01 221.206V221.206C2337.52 140.856 2296.59 54.894 2220.92 19.83V19.83C2191.41 6.158 2160.73 0.084 2130.06 0V0H2128.79ZM2139.65 149.405C2144.13 150.369 2148.55 151.537 2152.92 152.997V152.997C2155.54 154.459 2158.6 156.271 2158.86 156.427V156.427C2159.66 156.911 2161.66 158.515 2163.62 159.961V159.961C2166.74 163.329 2170.86 169.641 2174.47 172.485V172.485C2175.33 173.869 2176.17 175.267 2176.98 176.679V176.679C2178.53 179.379 2179.93 182.129 2181.35 184.893V184.893C2184.2 193.661 2186.65 202.361 2188.46 211.307V211.307C2189.09 220.745 2189.01 230.121 2188.29 239.547V239.547C2185.19 255.465 2180.38 270.581 2175.07 286.063V286.063C2172.93 290.687 2170.7 295.263 2168.36 299.787V299.787C2163.55 309.109 2158.35 318.233 2152.86 327.165V327.165C2143.21 342.833 2132.6 357.825 2121.64 372.587V372.587C2120.87 373.571 2120.12 374.569 2119.35 375.537V375.537C2116.59 378.995 2113.8 382.427 2110.99 385.839V385.839C2104.42 393.791 2097.71 401.617 2090.85 409.317V409.317C2064.36 439.053 2035.79 466.897 2005.79 493.067V493.067C1990.74 506.195 1975.26 518.769 1959.65 531.211V531.211C1955.87 534.071 1952.09 536.933 1948.29 539.763V539.763C1940.55 545.519 1932.76 551.195 1924.91 556.791V556.791C1906.4 569.993 1887.6 582.817 1868.55 595.281V595.281C1864.81 581.347 1861.79 567.227 1859.48 552.973V552.973C1856.36 523.129 1856.53 493.185 1859.74 463.361V463.361C1862.49 446.227 1866.15 429.267 1870.85 412.545V412.545C1873.65 402.567 1876.78 392.687 1880.24 382.921V382.921C1881.98 378.029 1883.79 373.169 1885.68 368.337V368.337C1885.93 367.703 1886.16 367.127 1886.36 366.603V366.603C1894.8 348.197 1903.89 330.211 1914.35 312.853V312.853C1919.74 303.921 1925.41 295.157 1931.35 286.585V286.585C1934.32 282.297 1937.36 278.055 1940.47 273.861V273.861C1940.53 273.781 1940.59 273.701 1940.65 273.623V273.623C1940.67 273.599 1940.69 273.575 1940.71 273.553V273.553C1954.09 257.475 1967.86 241.907 1982.97 227.413V227.413C1990.5 220.195 1998.26 213.221 2006.24 206.515V206.515C2010.22 203.169 2014.46 200.077 2018.38 196.661V196.661C2016.37 198.409 2014.75 199.815 2013.47 200.925V200.925C2015.37 199.337 2017.48 197.617 2018.82 196.657V196.657C2036.89 183.671 2055.88 171.875 2075.98 162.283V162.283C2077.03 161.781 2078.08 161.285 2079.14 160.795V160.795C2084.4 158.923 2089.61 156.947 2094.96 155.299V155.299C2102.54 152.965 2110.21 151.075 2117.98 149.585V149.585C2125.22 149.071 2132.42 148.991 2139.65 149.405V149.405ZM2149.9 151.403C2149.42 151.233 2149.12 151.133 2149.11 151.143V151.143C2149.16 151.087 2149.45 151.191 2149.9 151.403V151.403ZM2162.62 158.967C2162.84 159.169 2163.07 159.395 2163.31 159.637V159.637C2159.53 156.583 2156.12 152.999 2162.62 158.967V158.967ZM2165.56 161.333C2166.59 162.017 2167.48 162.505 2167.98 162.553V162.553C2167.44 162.501 2166.56 162.019 2165.56 161.333V161.333ZM2172.13 168.835C2172.51 169.421 2172.9 170.007 2173.28 170.597V170.597C2170.09 166.545 2166.85 160.855 2172.13 168.835V168.835ZM2165.15 904.934C2166.93 905.688 2168.71 906.442 2170.49 907.196V907.196C2168.68 906.498 2166.88 905.772 2165.15 904.934V904.934ZM2013.47 200.926C2009.49 204.266 2006.44 207.022 2013.47 200.926V200.926Z" fill="url(#paint0_linear_205_6018)"/>
<path id="Path 2" style="mix-blend-mode:multiply" opacity="0.73618" fill-rule="evenodd" clip-rule="evenodd" d="M1960 716L1798 812L1903.05 939.009L2117.85 822.903L1960 716Z" fill="url(#paint1_linear_205_6018)"/>
<path id="Path 2 Copy" style="mix-blend-mode:multiply" opacity="0.73618" fill-rule="evenodd" clip-rule="evenodd" d="M1730 678L1888.58 582.373L1775.68 455.196L1558.39 582.648L1730 678Z" fill="url(#paint2_linear_205_6018)"/>
</g>
</g>
</g>
<defs>
<linearGradient id="paint0_linear_205_6018" x1="1391.3" y1="1372.6" x2="1954.42" y2="-5.01553" gradientUnits="userSpaceOnUse">
<stop stop-color="#1AA3FF"/>
<stop offset="0.52087" stop-color="#7192FF"/>
<stop offset="1" stop-color="#AD87FF"/>
</linearGradient>
<linearGradient id="paint1_linear_205_6018" x1="2024.95" y1="863.986" x2="1991.86" y2="761.231" gradientUnits="userSpaceOnUse">
<stop stop-color="#EEEEEE" stop-opacity="0.01"/>
<stop offset="1" stop-color="#D8D8D8"/>
</linearGradient>
<linearGradient id="paint2_linear_205_6018" x1="1690.16" y1="510.815" x2="1694.7" y2="640.8" gradientUnits="userSpaceOnUse">
<stop stop-color="#EEEEEE" stop-opacity="0.01"/>
<stop offset="1" stop-color="#D8D8D8"/>
</linearGradient>
</defs>
</svg>
