<svg width="664" height="664" viewBox="0 0 664 664" fill="none" xmlns="http://www.w3.org/2000/svg">
<path d="M271.627 279.75L331.936 175.294L211.319 105.66L151.01 210.115L271.627 279.75Z" fill="url(#paint0_linear_661_33013)"/>
<path d="M543.254 367.097L482.877 262.528L603.623 192.818L664 297.379L543.254 367.097Z" fill="url(#paint1_linear_661_33013)"/>
<path d="M180.994 401.653L120.663 297.16L0 366.817L60.3314 471.311L180.994 401.653Z" fill="url(#paint2_linear_661_33013)"/>
<path d="M331.936 175.294L271.559 210.153L331.936 245.012L392.312 210.153L331.936 175.294Z" fill="#08F7BC"/>
<path d="M331.936 245.012V314.722L392.312 279.863V210.153L331.936 245.012Z" fill="#05D19C"/>
<path d="M331.936 245.012L271.559 210.153V279.863L331.936 314.722V245.012Z" fill="#17E5AF"/>
<path d="M407.407 218.598L347.03 253.457L407.407 288.308L467.784 253.457L407.407 218.598Z" fill="#EFF3F6"/>
<path d="M407.407 288.308V358.025L467.783 323.166V253.457L407.407 288.308Z" fill="#B5C4D1"/>
<path d="M407.407 288.308L347.03 253.457V323.166L407.407 358.025V288.308Z" fill="#DAE2E8"/>
<path d="M482.878 262.528L422.501 297.379L482.878 332.238L543.254 297.379L482.878 262.528Z" fill="#0082FF"/>
<path d="M482.877 332.238V401.948L543.254 367.096V297.379L482.877 332.238Z" fill="#0462AF"/>
<path d="M482.878 332.238L422.501 297.379V367.096L482.878 401.948V332.238Z" fill="#0075D6"/>
<path d="M256.465 218.711L196.088 253.57L256.465 288.428L316.842 253.57L256.465 218.711Z" fill="#EFF3F6"/>
<path d="M256.465 288.428V358.138L316.842 323.279V253.569L256.465 288.428Z" fill="#B5C4D1"/>
<path d="M256.465 288.428L196.088 253.569V323.279L256.465 358.138V288.428Z" fill="#DAE2E8"/>
<path d="M331.936 262.437L271.559 297.296L331.936 332.147L392.312 297.296L331.936 262.437Z" fill="#EFF3F6"/>
<path d="M331.936 332.148V401.858L392.312 367.006V297.296L331.936 332.148Z" fill="#B5C4D1"/>
<path d="M331.936 332.148L271.559 297.296V367.006L331.936 401.858V332.148Z" fill="#DAE2E8"/>
<path d="M407.407 305.862L347.03 340.713L407.407 375.572L467.784 340.713L407.407 305.862Z" fill="#EFF3F6"/>
<path d="M407.407 375.572V445.282L467.783 410.43V340.713L407.407 375.572Z" fill="#B5C4D1"/>
<path d="M407.407 375.572L347.03 340.713V410.43L407.407 445.282V375.572Z" fill="#DAE2E8"/>
<path d="M180.994 262.301L120.618 297.16L180.994 332.019L241.371 297.16L180.994 262.301Z" fill="#24333F"/>
<path d="M180.995 332.019V401.729L241.371 366.87V297.16L180.995 332.019Z" fill="#11171D"/>
<path d="M180.994 332.019L120.618 297.16V366.87L180.994 401.729V332.019Z" fill="#1D2933"/>
<path d="M256.465 306.058L196.088 340.917L256.465 375.776L316.842 340.917L256.465 306.058Z" fill="#EFF3F6"/>
<path d="M256.465 375.775V445.485L316.842 410.626V340.917L256.465 375.775Z" fill="#B5C4D1"/>
<path d="M256.465 375.775L196.088 340.917V410.626L256.465 445.485V375.775Z" fill="#DAE2E8"/>
<path d="M331.936 349.377L271.559 384.236L331.936 419.094L392.312 384.236L331.936 349.377Z" fill="#06808B"/>
<path d="M331.936 419.094V488.804L392.312 453.945V384.235L331.936 419.094Z" fill="#085860"/>
<path d="M331.936 419.094L271.559 384.235V453.945L331.936 488.804V419.094Z" fill="#0C686D"/>
<path d="M392.313 384.235L332.487 487.853L452.138 556.937L511.964 453.311L392.313 384.235Z" fill="url(#paint3_linear_661_33013)"/>
<path d="M120.618 210.002L331.936 88L543.254 210.002L331.936 332.004" stroke="white" stroke-width="1.34003" stroke-linecap="round" stroke-linejoin="round" stroke-dasharray="3.35 6.7"/>
<path d="M331.936 576L543.254 453.998V210.002" stroke="white" stroke-width="1.34003" stroke-linecap="round" stroke-linejoin="round" stroke-dasharray="3.35 6.7"/>
<path d="M331.936 332.004L120.618 210.002V453.998L331.936 576V332.004Z" stroke="white" stroke-width="1.34003" stroke-linecap="round" stroke-linejoin="round" stroke-dasharray="3.35 6.7"/>
<defs>
<linearGradient id="paint0_linear_661_33013" x1="301.045" y1="227.099" x2="186.321" y2="160.861" gradientUnits="userSpaceOnUse">
<stop stop-color="#08F7BC"/>
<stop offset="1" stop-color="#08F7BC" stop-opacity="0"/>
</linearGradient>
<linearGradient id="paint1_linear_661_33013" x1="513.802" y1="314.391" x2="628.643" y2="248.085" gradientUnits="userSpaceOnUse">
<stop stop-color="#0075D6"/>
<stop offset="1" stop-color="#0075D6" stop-opacity="0"/>
</linearGradient>
<linearGradient id="paint2_linear_661_33013" x1="150.091" y1="349.829" x2="35.3277" y2="416.089" gradientUnits="userSpaceOnUse">
<stop stop-color="#1D2933"/>
<stop offset="1" stop-color="#1D2933" stop-opacity="0"/>
</linearGradient>
<linearGradient id="paint3_linear_661_33013" x1="363.129" y1="436.467" x2="476.925" y2="502.17" gradientUnits="userSpaceOnUse">
<stop stop-color="#085860"/>
<stop offset="1" stop-color="#085860" stop-opacity="0"/>
</linearGradient>
</defs>
</svg>
